<svg width="534" height="170" viewBox="0 0 534 170" fill="none" xmlns="http://www.w3.org/2000/svg">
<g opacity="0.3">
<path d="M27.2845 144.304C38.155 144.304 46.0152 140.309 50.8651 132.32C55.715 124.331 58.1399 111.931 58.1399 95.1208V87.8806C58.1399 71.2365 55.6314 58.9199 50.6142 50.9308C45.5971 42.7752 37.6533 38.6974 26.7828 38.6974C15.9123 38.6974 7.96853 42.692 2.95139 50.6811C-2.06575 58.6703 -4.57432 71.0701 -4.57432 87.8806V95.3704C-4.57432 112.014 -2.06575 124.331 2.95139 132.32C8.13577 140.309 16.2468 144.304 27.2845 144.304ZM25.7794 184C0.191967 184 -19.7094 176.261 -33.9246 160.782C-48.6415 145.136 -56 123.416 -56 95.6201V88.1303C-56 60.6676 -48.1398 38.9471 -32.4194 22.9688C-17.368 7.65626 2.36605 0 26.7828 0C50.8651 0 70.5992 7.24016 85.985 21.7205C101.705 37.3659 109.566 59.1696 109.566 87.1316V94.1221C109.566 122.251 102.04 144.304 86.9885 160.282C71.6026 176.094 51.1996 184 25.7794 184Z" fill="url(#paint0_linear_206_93839)"/>
<path d="M145.295 183.75C137.602 183.75 131.498 181.254 126.983 176.261C122.133 171.933 119.708 166.024 119.708 158.535C119.708 151.378 122.133 145.386 126.983 140.559C131.832 135.732 137.937 133.319 145.295 133.319C152.486 133.319 158.758 135.732 164.109 140.559C169.127 145.552 171.635 151.544 171.635 158.535C171.635 165.858 169.127 171.767 164.109 176.261C159.092 181.254 152.821 183.75 145.295 183.75Z" fill="url(#paint1_linear_206_93839)"/>
<path d="M257.205 184C234.126 184 216.65 178.341 204.776 167.023C193.571 156.87 187.55 142.806 186.714 124.83H233.373C234.544 131.821 236.634 136.814 239.645 139.81C242.99 143.638 248.676 145.552 256.703 145.552C263.894 145.552 269.246 143.222 272.758 138.562C276.437 133.901 278.277 127.826 278.277 120.337C278.277 112.347 276.186 106.106 272.005 101.612C267.824 97.118 261.804 94.8711 253.944 94.8711C241.568 94.8711 231.701 99.1153 224.342 107.604H193.738L197.501 2.49661H318.414V39.9457H234.628L233.624 79.3921C242.488 66.7427 256.452 60.4179 275.517 60.4179C291.907 60.4179 305.118 65.6608 315.153 76.1465C325.02 86.9652 329.953 101.945 329.953 121.085C329.953 140.06 323.515 155.289 310.637 166.773C297.258 178.258 279.447 184 257.205 184Z" fill="url(#paint2_linear_206_93839)"/>
<path d="M386.747 64.1628C391.262 64.1628 394.774 62.4984 397.283 59.1696C399.791 55.6744 401.046 50.9308 401.046 44.9389C401.046 38.9471 399.791 34.2867 397.283 30.9579C394.774 27.6291 391.262 25.9647 386.747 25.9647C382.064 25.9647 378.385 27.6291 375.709 30.9579C373.201 34.2867 371.946 38.8639 371.946 44.6893C371.946 57.6716 376.88 64.1628 386.747 64.1628ZM421.365 76.8955C412.502 85.7169 400.879 90.1275 386.496 90.1275C372.114 90.1275 360.574 85.8001 351.878 77.1452C343.349 68.9896 339.084 58.2542 339.084 44.9389C339.084 32.123 343.683 21.554 352.881 13.232C361.745 4.74355 373.033 0.499315 386.747 0.499315C400.126 0.499315 411.414 4.57711 420.613 12.7327C429.643 21.3876 434.159 31.8734 434.159 44.19C434.159 57.1723 429.894 68.0742 421.365 76.8955ZM486.839 2.49661H511.423L386.998 181.004H362.414L486.839 2.49661ZM472.038 138.562C472.038 151.378 476.888 157.786 486.588 157.786C496.288 157.786 501.138 151.378 501.138 138.562C501.138 126.079 496.288 119.837 486.588 119.837C482.073 119.837 478.477 121.502 475.801 124.83C473.293 128.159 472.038 132.736 472.038 138.562ZM521.206 170.768C512.343 179.589 500.72 184 486.337 184C471.955 184 460.415 179.673 451.719 171.018C443.19 162.862 438.925 152.127 438.925 138.811C438.925 125.995 443.524 115.427 452.722 107.104C461.586 98.616 472.874 94.3718 486.588 94.3718C500.469 94.3718 511.757 98.4496 520.454 106.605C529.485 115.094 534 125.579 534 138.062C534 151.045 529.735 161.947 521.206 170.768Z" fill="url(#paint3_linear_206_93839)"/>
</g>
<defs>
<linearGradient id="paint0_linear_206_93839" x1="239" y1="0" x2="239" y2="184" gradientUnits="userSpaceOnUse">
<stop stop-color="#D0E6FF"/>
<stop offset="1" stop-color="#B8D9FF"/>
</linearGradient>
<linearGradient id="paint1_linear_206_93839" x1="239" y1="0" x2="239" y2="184" gradientUnits="userSpaceOnUse">
<stop stop-color="#D0E6FF"/>
<stop offset="1" stop-color="#B8D9FF"/>
</linearGradient>
<linearGradient id="paint2_linear_206_93839" x1="239" y1="0" x2="239" y2="184" gradientUnits="userSpaceOnUse">
<stop stop-color="#D0E6FF"/>
<stop offset="1" stop-color="#B8D9FF"/>
</linearGradient>
<linearGradient id="paint3_linear_206_93839" x1="239" y1="0" x2="239" y2="184" gradientUnits="userSpaceOnUse">
<stop stop-color="#D0E6FF"/>
<stop offset="1" stop-color="#B8D9FF"/>
</linearGradient>
</defs>
</svg>
