<svg width="14" height="14" viewBox="0 0 14 14" fill="none" xmlns="http://www.w3.org/2000/svg">
<path d="M10.5 9.1875L10.8536 8.83395L11.2071 9.1875L10.8536 9.54105L10.5 9.1875ZM9.10355 7.08395L10.8536 8.83395L10.1464 9.54105L8.39645 7.79105L9.10355 7.08395ZM10.8536 9.54105L9.10355 11.2911L8.39645 10.5839L10.1464 8.83395L10.8536 9.54105ZM10.5 9.6875L3.5 9.6875L3.5 8.6875L10.5 8.6875L10.5 9.6875Z" fill="#1B3771"/>
<path d="M3.5 4.8125L3.14645 4.45895L2.79289 4.8125L3.14645 5.16605L3.5 4.8125ZM4.89645 2.70895L3.14645 4.45895L3.85355 5.16605L5.60355 3.41605L4.89645 2.70895ZM3.14645 5.16605L4.89645 6.91605L5.60355 6.20895L3.85355 4.45895L3.14645 5.16605ZM3.5 5.3125L10.5 5.3125L10.5 4.3125L3.5 4.3125L3.5 5.3125Z" fill="#1B3771"/>
</svg>
