<svg width="190" height="128" viewBox="0 0 190 128" fill="none" xmlns="http://www.w3.org/2000/svg">
<path opacity="0.1" d="M2.86966 73.9594C22.3072 63.1412 44.0048 54.1117 64.2779 45.0363C99.1555 30.1716 134.172 15.5645 169.541 1.96537C176.423 -0.351634 188.788 -2.61726 190 7.68698C189.336 22.2731 186.605 36.7739 184.732 51.2746C179.977 83.163 174.482 114.942 169.123 146.726C167.276 157.313 154.151 162.793 145.753 156.018C125.57 142.243 105.231 128.601 85.306 114.507C78.779 107.805 84.8316 98.1817 90.6608 93.3962C107.284 76.8429 124.913 62.779 140.668 45.3703C144.918 35.0011 132.361 43.7399 128.219 46.4177C105.462 62.264 83.2613 79.0776 59.2677 93.0043C47.0119 99.8212 32.7274 93.9957 20.4771 90.192C9.49337 85.5967 -6.60221 80.9671 2.86855 73.9607L2.86966 73.9594Z" fill="url(#paint0_linear_33452_10890)"/>
<defs>
<linearGradient id="paint0_linear_33452_10890" x1="88.2143" y1="-0.00151575" x2="108.486" y2="134.959" gradientUnits="userSpaceOnUse">
<stop stop-color="#6EB2F9"/>
<stop offset="1" stop-color="#6088F6"/>
</linearGradient>
</defs>
</svg>
