<svg width="17" height="19" viewBox="0 0 17 19" fill="none" xmlns="http://www.w3.org/2000/svg">
<path fill-rule="evenodd" clip-rule="evenodd" d="M15.985 2.9882C16.3447 2.9882 16.6442 3.28582 16.6442 3.66453V4.01467C16.6442 4.38416 16.3447 4.691 15.985 4.691H0.660084C0.299466 4.691 0 4.38416 0 4.01467V3.66453C0 3.28582 0.299466 2.9882 0.660084 2.9882H3.35618C3.90385 2.9882 4.38048 2.60028 4.50368 2.05295L4.64487 1.42453C4.8643 0.568522 5.58643 0 6.41289 0H10.2313C11.0488 0 11.779 0.568522 11.9903 1.37938L12.1414 2.05202C12.2637 2.60028 12.7403 2.9882 13.2889 2.9882H15.985ZM14.6156 15.7874C14.8971 13.1733 15.3899 6.96282 15.3899 6.90017C15.4079 6.71035 15.3458 6.53067 15.2226 6.38601C15.0904 6.25056 14.9232 6.17039 14.7388 6.17039H1.91303C1.72777 6.17039 1.55151 6.25056 1.4292 6.38601C1.3051 6.53067 1.24395 6.71035 1.25294 6.90017C1.25459 6.91168 1.27228 7.13044 1.30184 7.49617C1.43317 9.12088 1.79896 13.6461 2.03533 15.7874C2.2026 17.3648 3.24129 18.3563 4.74581 18.3922C5.9068 18.419 7.10287 18.4282 8.32591 18.4282C9.47791 18.4282 10.6479 18.419 11.8449 18.3922C13.4015 18.3655 14.4393 17.3916 14.6156 15.7874Z" fill="#E04130"/>
</svg>
