<svg width="163" height="26" viewBox="0 0 163 26" fill="none" xmlns="http://www.w3.org/2000/svg">
<path d="M9.75 7.71914H6.825C5.72 7.71914 4.875 8.01977 4.29 8.62102C3.705 9.20602 3.4125 10.0835 3.4125 11.2535V18.6879H0V11.2535C0 9.59602 0.52 8.31227 1.56 7.40227C2.61625 6.47602 4.1275 6.01289 6.09375 6.01289H9.75V7.71914Z" fill="#1B3771"/>
<path d="M18.2651 17.4691C19.0613 17.4691 19.8007 17.331 20.4832 17.0548C21.1819 16.7785 21.8644 16.3885 22.5307 15.8848L23.5057 17.3473C23.1969 17.6235 22.8313 17.8754 22.4088 18.1029C22.0026 18.3304 21.5557 18.5254 21.0682 18.6879C20.5969 18.8341 20.1013 18.9479 19.5813 19.0291C19.0613 19.1266 18.5413 19.1754 18.0213 19.1754C16.8676 19.1754 15.8113 19.021 14.8526 18.7123C13.9101 18.4198 13.1057 17.9891 12.4394 17.4204C11.7732 16.8354 11.2532 16.1204 10.8794 15.2754C10.5219 14.4304 10.3432 13.4554 10.3432 12.3504C10.3432 11.2616 10.5138 10.2948 10.8551 9.44977C11.2126 8.58852 11.7001 7.87352 12.3176 7.30477C12.9513 6.71977 13.6988 6.28102 14.5601 5.98852C15.4213 5.67977 16.3719 5.52539 17.4119 5.52539C18.3869 5.52539 19.3051 5.67164 20.1663 5.96414C21.0276 6.25664 21.7751 6.68727 22.4088 7.25602C23.0426 7.80852 23.5463 8.48289 23.9201 9.27914C24.2938 10.0754 24.4807 10.9773 24.4807 11.9848V13.691H14.0726C14.2676 15.0398 14.7307 16.0066 15.4619 16.5916C16.2094 17.1766 17.1438 17.4691 18.2651 17.4691ZM17.4119 7.10977C16.9407 7.10977 16.5019 7.19914 16.0957 7.37789C15.6894 7.55664 15.3319 7.84102 15.0232 8.23102C14.7307 8.62102 14.4869 9.12477 14.2919 9.74227C14.1132 10.3598 14.0157 11.1073 13.9994 11.9848H20.8244C20.8244 11.1398 20.7269 10.4085 20.5319 9.79102C20.3369 9.17352 20.0769 8.66977 19.7519 8.27977C19.4432 7.87352 19.0776 7.58102 18.6551 7.40227C18.2488 7.20727 17.8344 7.10977 17.4119 7.10977Z" fill="#1B3771"/>
<path d="M34.3621 12.2773L39.7246 18.6879H35.8246L32.4121 14.6173L28.9996 18.6879H25.0996L30.4621 12.2773L25.2215 6.01289H29.1215L32.4121 9.96164L35.7027 6.01289H39.6027L34.3621 12.2773Z" fill="#1B3771"/>
<path d="M75.2201 6.3375C75.7401 6.3375 76.2601 6.38625 76.7801 6.48375C77.3001 6.565 77.7957 6.68687 78.267 6.84937C78.7545 6.99563 79.2013 7.1825 79.6076 7.41C80.0301 7.6375 80.3957 7.88938 80.7045 8.16563L79.7295 9.62813C79.0632 9.12438 78.3807 8.73438 77.682 8.45813C76.9995 8.18188 76.2601 8.04375 75.4638 8.04375C74.8788 8.04375 74.3426 8.14125 73.8551 8.33625C73.3676 8.515 72.9451 8.81563 72.5876 9.23813C72.2301 9.64438 71.9457 10.1725 71.7345 10.8225C71.5395 11.4725 71.442 12.2525 71.442 13.1625C71.442 14.0725 71.5395 14.8525 71.7345 15.5025C71.9457 16.1525 72.2382 16.6888 72.612 17.1113C72.9857 17.5175 73.4326 17.8181 73.9526 18.0131C74.4888 18.1919 75.0738 18.2813 75.7076 18.2813C76.5038 18.2813 77.2432 18.1431 77.9257 17.8669C78.6245 17.5906 79.307 17.2006 79.9732 16.6969L80.9482 18.1594C80.6395 18.4356 80.2738 18.6875 79.8513 18.915C79.4451 19.1425 78.9982 19.3375 78.5107 19.5C78.0395 19.6463 77.5438 19.76 77.0238 19.8413C76.5038 19.9388 75.9838 19.9875 75.4638 19.9875C74.3101 19.9875 73.2538 19.8331 72.2951 19.5244C71.3526 19.2319 70.5482 18.8013 69.882 18.2325C69.2157 17.6475 68.6957 16.9325 68.322 16.0875C67.9645 15.2425 67.7857 14.2675 67.7857 13.1625C67.7857 12.0738 67.9645 11.1069 68.322 10.2619C68.6957 9.40063 69.2076 8.68563 69.8576 8.11688C70.5076 7.53188 71.2876 7.09313 72.1976 6.80063C73.1076 6.49188 74.1151 6.3375 75.2201 6.3375Z" fill="#1B3771"/>
<path d="M96.7977 19.5H93.3852V11.8219C93.3852 10.6519 93.0927 9.815 92.5077 9.31125C91.9227 8.79125 91.0777 8.53125 89.9727 8.53125H86.8039V19.5H83.3914V2.4375H86.8039V6.825H89.9727C92.2964 6.825 94.0108 7.2475 95.1158 8.0925C96.237 8.92125 96.7977 10.1644 96.7977 11.8219V19.5Z" fill="#1B3771"/>
<path d="M102.881 15.4781C102.881 17.0219 103.815 17.7938 105.684 17.7938H109.097V13.1625H105.684C103.815 13.1625 102.881 13.9344 102.881 15.4781ZM109.097 11.4563C109.097 10.2863 108.788 9.425 108.17 8.8725C107.569 8.32 106.781 8.04375 105.806 8.04375C105.075 8.04375 104.36 8.1575 103.661 8.385C102.962 8.59625 102.337 8.88875 101.784 9.2625L100.931 7.8C101.288 7.55625 101.678 7.345 102.101 7.16625C102.54 6.9875 102.987 6.84125 103.442 6.7275C103.897 6.5975 104.343 6.5 104.782 6.435C105.237 6.37 105.66 6.3375 106.05 6.3375C107.09 6.3375 108.008 6.45938 108.804 6.70313C109.6 6.94688 110.275 7.29625 110.827 7.75125C111.38 8.20625 111.794 8.75063 112.07 9.38438C112.363 10.0019 112.509 10.6925 112.509 11.4563V19.5H105.684C103.474 19.5 101.841 19.1669 100.785 18.5006C99.7447 17.8344 99.2247 16.8269 99.2247 15.4781C99.2247 14.1294 99.7447 13.1219 100.785 12.4556C101.841 11.7894 103.474 11.4563 105.684 11.4563H109.097Z" fill="#1B3771"/>
<path d="M129.195 19.5H125.782V11.8219C125.782 10.6519 125.49 9.815 124.905 9.31125C124.32 8.79125 123.475 8.53125 122.37 8.53125H119.201V19.5H115.788V6.825H122.37C124.693 6.825 126.408 7.2475 127.513 8.0925C128.634 8.92125 129.195 10.1644 129.195 11.8219V19.5Z" fill="#1B3771"/>
<path d="M139.3 8.53125C138.13 8.53125 137.203 8.89688 136.521 9.62813C135.855 10.3431 135.522 11.44 135.522 12.9188C135.522 14.3975 135.855 15.5025 136.521 16.2338C137.203 16.9488 138.13 17.3063 139.3 17.3063H142.347V8.53125H139.3ZM145.759 19.2563C145.759 20.02 145.613 20.7106 145.32 21.3281C145.028 21.9619 144.589 22.5063 144.004 22.9613C143.435 23.4163 142.712 23.7656 141.835 24.0094C140.973 24.2531 139.966 24.375 138.812 24.375C138.422 24.375 138 24.3425 137.545 24.2775C137.106 24.2288 136.659 24.1394 136.204 24.0094C135.749 23.8956 135.302 23.7413 134.863 23.5463C134.441 23.3675 134.051 23.1562 133.693 22.9125L134.547 21.45C135.099 21.8238 135.725 22.1163 136.423 22.3275C137.122 22.555 137.837 22.6688 138.568 22.6688C139.787 22.6688 140.722 22.3925 141.372 21.84C142.022 21.2875 142.347 20.4263 142.347 19.2563V19.0125H139.3C138.178 19.0125 137.155 18.8663 136.228 18.5737C135.318 18.2813 134.538 17.8669 133.888 17.3306C133.238 16.7944 132.735 16.1525 132.377 15.405C132.036 14.6575 131.865 13.8288 131.865 12.9188C131.865 12.0088 132.036 11.18 132.377 10.4325C132.735 9.685 133.238 9.04313 133.888 8.50688C134.538 7.97063 135.318 7.55625 136.228 7.26375C137.155 6.97125 138.178 6.825 139.3 6.825H145.759V19.2563Z" fill="#1B3771"/>
<path d="M156.474 18.2813C157.27 18.2813 158.009 18.1431 158.692 17.8669C159.39 17.5906 160.073 17.2006 160.739 16.6969L161.714 18.1594C161.405 18.4356 161.04 18.6875 160.617 18.915C160.211 19.1425 159.764 19.3375 159.277 19.5C158.805 19.6463 158.31 19.76 157.79 19.8413C157.27 19.9388 156.75 19.9875 156.23 19.9875C155.076 19.9875 154.02 19.8331 153.061 19.5244C152.119 19.2319 151.314 18.8013 150.648 18.2325C149.982 17.6475 149.462 16.9325 149.088 16.0875C148.73 15.2425 148.552 14.2675 148.552 13.1625C148.552 12.0738 148.722 11.1069 149.064 10.2619C149.421 9.40063 149.909 8.68563 150.526 8.11688C151.16 7.53188 151.907 7.09313 152.769 6.80063C153.63 6.49188 154.58 6.3375 155.62 6.3375C156.595 6.3375 157.514 6.48375 158.375 6.77625C159.236 7.06875 159.984 7.49938 160.617 8.06813C161.251 8.62063 161.755 9.295 162.129 10.0913C162.502 10.8875 162.689 11.7894 162.689 12.7969V14.5031H152.281C152.476 15.8519 152.939 16.8188 153.67 17.4038C154.418 17.9888 155.352 18.2813 156.474 18.2813ZM155.62 7.92188C155.149 7.92188 154.71 8.01125 154.304 8.19C153.898 8.36875 153.54 8.65313 153.232 9.04313C152.939 9.43313 152.695 9.93688 152.5 10.5544C152.322 11.1719 152.224 11.9194 152.208 12.7969H159.033C159.033 11.9519 158.935 11.2206 158.74 10.6031C158.545 9.98563 158.285 9.48188 157.96 9.09188C157.652 8.68563 157.286 8.39313 156.864 8.21438C156.457 8.01938 156.043 7.92188 155.62 7.92188Z" fill="#1B3771"/>
<path d="M53.5498 4.33398V1.08398L49.2164 5.41732L53.5498 9.75065V6.50065C57.1356 6.50065 60.0498 9.41482 60.0498 13.0007C60.0498 14.0948 59.7789 15.1348 59.2914 16.034L60.8731 17.6157C61.7181 16.2831 62.2164 14.7015 62.2164 13.0007C62.2164 8.21232 58.3381 4.33398 53.5498 4.33398ZM53.5498 19.5007C49.9639 19.5007 47.0498 16.5865 47.0498 13.0007C47.0498 11.9065 47.3206 10.8665 47.8081 9.96732L46.2265 8.38565C45.3815 9.71815 44.8831 11.2998 44.8831 13.0007C44.8831 17.789 48.7614 21.6673 53.5498 21.6673V24.9173L57.8831 20.584L53.5498 16.2507V19.5007Z" fill="#1B3771"/>
</svg>
