<svg width="22" height="30" viewBox="0 0 22 30" fill="none" xmlns="http://www.w3.org/2000/svg">
<path d="M11 4.33398V0.333984L5.66671 5.66732L11 11.0007V7.00065C15.4134 7.00065 19 10.5873 19 15.0007C19 16.3473 18.6667 17.6273 18.0667 18.734L20.0134 20.6807C21.0534 19.0406 21.6667 17.094 21.6667 15.0007C21.6667 9.10732 16.8934 4.33398 11 4.33398ZM11 23.0007C6.58671 23.0007 3.00004 19.414 3.00004 15.0007C3.00004 13.654 3.33337 12.374 3.93337 11.2673L1.98671 9.32065C0.946707 10.9607 0.333374 12.9073 0.333374 15.0007C0.333374 20.894 5.10671 25.6673 11 25.6673V29.6673L16.3334 24.334L11 19.0007V23.0007Z" fill="#1B3771"/>
</svg>
