<svg width="32" height="32" viewBox="0 0 32 32" fill="none" xmlns="http://www.w3.org/2000/svg">
<path d="M16.0003 2.66602C8.66699 2.66602 2.66699 8.66602 2.66699 15.9993C2.66699 23.3327 8.66699 29.3327 16.0003 29.3327C23.3337 29.3327 29.3337 23.3327 29.3337 15.9993C29.3337 8.66602 23.3337 2.66602 16.0003 2.66602ZM20.7337 21.066L15.2937 17.7193C14.8937 17.4793 14.6537 17.0527 14.6537 16.586V10.3327C14.667 9.78602 15.1203 9.33268 15.667 9.33268C16.2137 9.33268 16.667 9.78602 16.667 10.3327V16.266L21.787 19.346C22.267 19.6393 22.427 20.266 22.1337 20.746C21.8403 21.2127 21.2137 21.3594 20.7337 21.066Z" fill="url(#paint0_linear_33452_28938)"/>
<defs>
<linearGradient id="paint0_linear_33452_28938" x1="16.0003" y1="2.66602" x2="16.0003" y2="29.3327" gradientUnits="userSpaceOnUse">
<stop stop-color="#D0E6FF"/>
<stop offset="1" stop-color="#B8D9FF"/>
</linearGradient>
</defs>
</svg>
